<svg aria-hidden="true" style="position: absolute; width: 0; height: 0; overflow: hidden;" version="1.1" xmlns="http://www.w3.org/2000/svg" xmlns:xlink="http://www.w3.org/1999/xlink">
<defs>
<symbol id="icon-close-cross" viewBox="0 0 32 32">
<path d="M23.507 24.675l-7.511-7.511-7.317 7.317-1.207-1.207 7.317-7.317-7.473-7.473 1.129-1.129 7.472 7.472 7.356-7.356 1.207 1.207-7.356 7.356 7.511 7.511-1.129 1.129z"></path>
</symbol>
<symbol id="icon-analytics" viewBox="0 0 32 32">
<path  d="M31.333 30.667h-30.667c-0.368 0-0.667 0.299-0.667 0.667s0.299 0.667 0.667 0.667h30.667c0.368 0 0.667-0.299 0.667-0.667s-0.299-0.667-0.667-0.667z"></path>
<path  d="M6 22.667h-4c-0.368 0-0.667 0.299-0.667 0.667v8c0 0.368 0.299 0.667 0.667 0.667h4c0.368 0 0.667-0.299 0.667-0.667v-8c0-0.368-0.299-0.667-0.667-0.667zM5.333 30.667h-2.667v-6.667h2.667v6.667h-0z"></path>
<path  d="M14 16h-4c-0.368 0-0.667 0.299-0.667 0.667v14.667c0 0.368 0.299 0.667 0.667 0.667h4c0.368 0 0.667-0.299 0.667-0.667v-14.667c0-0.368-0.299-0.667-0.667-0.667zM13.333 30.667h-2.667v-13.333h2.667v13.333z"></path>
<path  d="M22 18.667h-4c-0.368 0-0.667 0.299-0.667 0.667v12c0 0.368 0.299 0.667 0.667 0.667h4c0.368 0 0.667-0.299 0.667-0.667v-12c0-0.368-0.299-0.667-0.667-0.667zM21.333 30.667h-2.667v-10.667h2.667v10.667z"></path>
<path  d="M30 10.667h-4c-0.368 0-0.667 0.299-0.667 0.667v20c0 0.368 0.299 0.667 0.667 0.667h4c0.368 0 0.667-0.299 0.667-0.667v-20c0-0.368-0.299-0.667-0.667-0.667zM29.333 30.667h-2.667v-18.667h2.667v18.667z"></path>
<path  d="M4 12c-1.471 0-2.667 1.196-2.667 2.667s1.196 2.667 2.667 2.667 2.667-1.196 2.667-2.667c0-1.471-1.196-2.667-2.667-2.667zM4 16c-0.736 0-1.333-0.599-1.333-1.333s0.597-1.333 1.333-1.333 1.333 0.599 1.333 1.333c0 0.735-0.597 1.333-1.333 1.333z"></path>
<path  d="M12 5.333c-1.471 0-2.667 1.196-2.667 2.667s1.196 2.667 2.667 2.667c1.471 0 2.667-1.196 2.667-2.667s-1.196-2.667-2.667-2.667zM12 9.333c-0.736 0-1.333-0.599-1.333-1.333s0.597-1.333 1.333-1.333 1.333 0.599 1.333 1.333c0 0.735-0.597 1.333-1.333 1.333z"></path>
<path  d="M20 8c-1.471 0-2.667 1.196-2.667 2.667s1.196 2.667 2.667 2.667c1.471 0 2.667-1.196 2.667-2.667s-1.196-2.667-2.667-2.667zM20 12c-0.736 0-1.333-0.599-1.333-1.333s0.597-1.333 1.333-1.333 1.333 0.599 1.333 1.333c0 0.735-0.597 1.333-1.333 1.333z"></path>
<path  d="M28 0c-1.471 0-2.667 1.196-2.667 2.667s1.196 2.667 2.667 2.667c1.471 0 2.667-1.196 2.667-2.667s-1.196-2.667-2.667-2.667zM28 4c-0.736 0-1.333-0.599-1.333-1.333s0.597-1.333 1.333-1.333 1.333 0.599 1.333 1.333c0 0.735-0.597 1.333-1.333 1.333z"></path>
<path  d="M27.059 3.608c-0.26-0.26-0.683-0.26-0.943 0l-5.173 5.173c-0.26 0.26-0.26 0.683 0 0.943 0.131 0.129 0.301 0.195 0.472 0.195 0.169 0 0.34-0.064 0.471-0.195l5.173-5.173c0.26-0.26 0.26-0.683 0-0.943z"></path>
<path  d="M18.388 9.128l-4.283-1.221c-0.359-0.104-0.723 0.104-0.823 0.459-0.101 0.355 0.104 0.723 0.457 0.824l4.283 1.221c0.061 0.017 0.123 0.025 0.183 0.025 0.291 0 0.557-0.191 0.641-0.484 0.101-0.353-0.104-0.723-0.459-0.824z"></path>
<path  d="M10.96 8.831c-0.229-0.288-0.648-0.335-0.936-0.107l-5.027 4.008c-0.288 0.231-0.336 0.649-0.105 0.937 0.132 0.165 0.327 0.251 0.521 0.251 0.145 0 0.292-0.048 0.415-0.144l5.027-4.008c0.288-0.231 0.336-0.649 0.105-0.937z"></path>
</symbol>
<symbol id="icon-search" viewBox="0 0 32 32">
<path  d="M31.609 29.724l-9.1-9.1c1.763-2.177 2.824-4.944 2.824-7.957 0-6.984-5.683-12.667-12.667-12.667s-12.666 5.683-12.666 12.666c0 6.984 5.683 12.667 12.667 12.667 3.013 0 5.78-1.061 7.957-2.824l9.1 9.1c0.26 0.26 0.601 0.391 0.943 0.391s0.683-0.131 0.943-0.391c0.521-0.521 0.521-1.364-0-1.885zM12.667 22.667c-5.515 0-10-4.485-10-10s4.485-10 10-10c5.515 0 10 4.485 10 10s-4.485 10-10 10z"></path>
</symbol>
<symbol id="icon-arrow-right" viewBox="0 0 32 32">
<path stroke-linejoin="miter" stroke-linecap="butt" stroke-miterlimit="4" stroke-width="2.2857" d="M6.857 29.714l18.286-13.714-18.286-13.714"></path>
</symbol>
<symbol id="icon-arrow-left" viewBox="0 0 32 32">
<path stroke-linejoin="miter" stroke-linecap="butt" stroke-miterlimit="4" stroke-width="2.2857" d="M25.143 29.714l-18.286-13.714 18.286-13.714"></path>
</symbol>
<symbol id="icon-add-people" viewBox="0 0 32 32">
<path d="M18.529 21.037c-0.782-0.546-1.619-0.991-2.493-1.331 1.163-1.057 1.935-2.539 2.069-4.197 1.764-1.719 4.077-2.661 6.556-2.661 1.935 0 3.794 0.583 5.374 1.685 0.566 0.395 1.345 0.256 1.74-0.31s0.256-1.345-0.31-1.74c-0.783-0.546-1.619-0.99-2.493-1.331 1.284-1.167 2.091-2.849 2.091-4.716 0-3.515-2.86-6.374-6.374-6.374s-6.374 2.859-6.374 6.374c0 1.86 0.8 3.536 2.075 4.702-0.175 0.067-0.348 0.138-0.52 0.214-0.782 0.344-1.518 0.768-2.201 1.265-0.943-2.343-3.239-4.001-5.916-4.001-3.515 0-6.374 2.859-6.374 6.374 0 1.855 0.796 3.526 2.064 4.692-3.39 1.27-6.139 3.999-7.259 7.478-0.371 1.154-0.175 2.377 0.539 3.357s1.818 1.541 3.030 1.541h10.874c0.69 0 1.25-0.56 1.25-1.25s-0.56-1.25-1.25-1.25h-10.874c-0.404 0-0.772-0.187-1.010-0.514s-0.303-0.735-0.18-1.119c1.235-3.841 5.003-6.523 9.162-6.523 1.935 0 3.793 0.583 5.374 1.685 0.566 0.395 1.345 0.256 1.74-0.31s0.256-1.345-0.31-1.74zM24.688 2.562c2.136 0 3.875 1.738 3.875 3.874s-1.738 3.874-3.875 3.874c-2.136 0-3.874-1.738-3.874-3.874s1.738-3.874 3.874-3.874zM11.752 11.116c2.136 0 3.874 1.738 3.874 3.874s-1.738 3.875-3.874 3.875-3.874-1.738-3.874-3.875c0-2.136 1.738-3.874 3.874-3.874zM32 26.122c0 0.69-0.56 1.25-1.25 1.25h-3.437v3.437c0 0.69-0.56 1.25-1.25 1.25s-1.25-0.56-1.25-1.25v-3.437h-3.437c-0.69 0-1.25-0.56-1.25-1.25s0.56-1.25 1.25-1.25h3.437v-3.437c0-0.69 0.56-1.25 1.25-1.25s1.25 0.56 1.25 1.25v3.437h3.437c0.691 0 1.25 0.56 1.25 1.25z"></path>
</symbol>
<symbol id="icon-pen" viewBox="0 0 32 32">
<path  d="M15.999 0c-8.836 0-15.999 7.164-15.999 16s7.163 16 15.999 16c8.836 0 16-7.164 16-16s-7.164-16-16-16zM23.605 11.514l-1.52 1.52-3.093-3.093-1.174 1.174 3.093 3.093-7.587 7.587-3.093-3.093-1.174 1.174 3.093 3.093-0.756 0.756-0.014-0.014c-0.084 0.138-0.22 0.239-0.382 0.275l-2.885 0.643c-0.043 0.010-0.087 0.014-0.131 0.014-0.157 0-0.31-0.062-0.424-0.176-0.146-0.145-0.206-0.354-0.161-0.555l0.643-2.884c0.036-0.162 0.137-0.298 0.275-0.382l-0.015-0.015 12.21-12.211c0.179-0.179 0.47-0.179 0.649 0.001l2.445 2.444c0.179 0.179 0.179 0.47-0 0.649z"></path>
</symbol>
<symbol id="icon-arrow" viewBox="0 0 32 32">
<path d="M0.667 15.635c-0.202 0.202-0.202 0.528 0 0.73l3.285 3.285c0.202 0.202 0.528 0.202 0.73 0s0.202-0.528 0-0.73l-2.92-2.92 2.92-2.92c0.202-0.202 0.202-0.528 0-0.73s-0.528-0.202-0.73 0l-3.285 3.285zM32 15.484h-30.968v1.032h30.968v-1.032z"></path>
</symbol>
<symbol id="icon-triangle" viewBox="0 0 32 32">
<path d="M16 26.667l13.857-20h-27.713l13.856 20z"></path>
</symbol>
<symbol id="icon-plus" viewBox="0 0 32 32">
<path  d="M31.883 17.058h-14.754v14.372h-2.37v-14.372h-14.677v-2.217h14.677v-14.448h2.37v14.448h14.754v2.217z"></path>
</symbol>
<symbol id="icon-log-out" viewBox="0 0 32 32">
<path stroke-linejoin="miter" stroke-linecap="butt" stroke-miterlimit="4" stroke-width="0.5333" d="M26.769 11.242v-0c0.384-0.384 1.007-0.384 1.391 0l2.799 2.799c1.115 1.114 1.115 2.928 0 4.042l-2.799 2.799c-0.192 0.192-0.443 0.288-0.695 0.288s-0.503-0.096-0.695-0.288v0c-0.384-0.384-0.384-1.006 0-1.39v0l2.446-2.446h-15.653c-0.543 0-0.983-0.44-0.983-0.983s0.44-0.983 0.983-0.983h15.653l-2.446-2.447c-0.384-0.384-0.384-1.006 0-1.39zM22.358 24.5v2.5c0 2.61-2.124 4.733-4.733 4.733h-12.563c-2.61 0-4.733-2.124-4.733-4.733v-22c0-2.61 2.124-4.733 4.733-4.733h12.563c2.61 0 4.733 2.124 4.733 4.733v2.5c0 0.543-0.44 0.983-0.983 0.983s-0.983-0.44-0.983-0.983v-2.5c0-1.526-1.241-2.767-2.767-2.767h-12.563c-1.526 0-2.767 1.241-2.767 2.767v22c0 1.526 1.241 2.767 2.767 2.767h12.563c1.526 0 2.767-1.241 2.767-2.767v-2.5c0-0.543 0.44-0.983 0.983-0.983s0.983 0.44 0.983 0.983z"></path>
</symbol>
<symbol id="icon-delete" viewBox="0 0 32 32">
<path d="M28.992 7.153l-0.707-2.118c-0.269-0.807-1.021-1.349-1.871-1.349h-5.938v-1.933c0-0.966-0.786-1.753-1.752-1.753h-5.438c-0.966 0-1.752 0.786-1.752 1.753v1.933h-5.938c-0.85 0-1.603 0.542-1.872 1.349l-0.707 2.118c-0.161 0.482-0.079 1.016 0.218 1.428s0.778 0.659 1.286 0.659h0.739l1.625 20.1c0.121 1.491 1.386 2.66 2.882 2.66h12.804c1.495 0 2.761-1.168 2.882-2.66l1.625-20.1h0.409c0.508 0 0.989-0.246 1.286-0.658s0.379-0.947 0.218-1.429zM13.41 1.875h5.191v1.811h-5.191zM23.585 29.189c-0.042 0.525-0.487 0.936-1.013 0.936h-12.804c-0.525 0-0.97-0.411-1.013-0.936l-1.614-19.949h18.056zM4.925 7.365l0.579-1.737c0.013-0.040 0.051-0.067 0.093-0.067h20.818c0.042 0 0.079 0.027 0.093 0.067l0.579 1.737z"></path>
<path d="M20.595 29.122c0.017 0.001 0.033 0.001 0.050 0.001 0.495 0 0.909-0.388 0.935-0.889l0.88-16.9c0.027-0.517-0.371-0.958-0.887-0.985-0.518-0.028-0.958 0.37-0.985 0.887l-0.88 16.9c-0.027 0.517 0.37 0.958 0.887 0.985z"></path>
<path d="M10.473 28.237c0.027 0.5 0.441 0.886 0.935 0.886 0.017 0 0.035-0 0.052-0.001 0.517-0.028 0.913-0.47 0.885-0.987l-0.922-16.9c-0.028-0.517-0.47-0.913-0.987-0.885s-0.913 0.47-0.885 0.987z"></path>
<path d="M16.016 29.124c0.518 0 0.938-0.42 0.938-0.938v-16.9c0-0.518-0.42-0.938-0.938-0.938s-0.938 0.42-0.938 0.938v16.9c0 0.518 0.42 0.938 0.938 0.938z"></path>
</symbol>
</defs>
</svg>
